<svg width="38" height="38" viewBox="0 0 38 38" fill="none" xmlns="http://www.w3.org/2000/svg">
<path d="M21.7439 1.93648L22.6607 4.51256C22.7973 4.89646 23.013 5.24742 23.2937 5.54278C23.5745 5.83813 23.9141 6.07131 24.2905 6.22724C24.667 6.38317 25.072 6.45839 25.4794 6.44804C25.8867 6.43769 26.2874 6.342 26.6554 6.16715L29.1254 4.9939C31.6002 3.81748 34.1826 6.3999 33.0062 8.87465L31.8329 11.3446C31.6576 11.7126 31.5615 12.1134 31.5509 12.5209C31.5403 12.9284 31.6154 13.3336 31.7714 13.7102C31.9274 14.0868 32.1608 14.4264 32.4564 14.7071C32.752 14.9877 33.1033 15.2032 33.4875 15.3394L36.0636 16.2546C38.6444 17.1729 38.6444 20.8241 36.0636 21.744L33.4875 22.6607C33.1036 22.7974 32.7527 23.013 32.4573 23.2938C32.162 23.5745 31.9288 23.9141 31.7729 24.2906C31.6169 24.667 31.5417 25.072 31.5521 25.4794C31.5624 25.8868 31.6581 26.2874 31.8329 26.6555L33.0062 29.1255C34.1826 31.6002 31.6002 34.1826 29.1254 33.0062L26.6554 31.833C26.2875 31.6578 25.8869 31.5619 25.4796 31.5513C25.0722 31.5407 24.6672 31.6158 24.2907 31.7716C23.9141 31.9274 23.5745 32.1605 23.2937 32.4558C23.013 32.7511 22.7973 33.1021 22.6607 33.486L21.7439 36.0636C20.8256 38.6445 17.1744 38.6445 16.2561 36.0636L15.3394 33.486C15.2026 33.1022 14.9868 32.7514 14.706 32.4562C14.4252 32.1611 14.0856 31.9281 13.7091 31.7723C13.3326 31.6165 12.9277 31.5414 12.5204 31.5519C12.1131 31.5623 11.7126 31.6581 11.3446 31.833L8.87461 33.0046C6.39987 34.1826 3.81745 31.6002 4.99387 29.1255L6.16712 26.6555C6.3425 26.2873 6.43862 25.8863 6.44925 25.4786C6.45988 25.0709 6.38478 24.6655 6.22881 24.2886C6.07284 23.9117 5.83948 23.5718 5.54384 23.2909C5.24819 23.0099 4.89684 22.7941 4.51253 22.6576L1.93645 21.7424C-0.644384 20.8241 -0.644384 17.1713 1.93645 16.253L4.51253 15.3378C4.89685 15.2017 5.24831 14.9864 5.54418 14.7058C5.84005 14.4253 6.07374 14.0858 6.23014 13.7093C6.38654 13.3327 6.46217 12.9276 6.45213 12.52C6.44209 12.1124 6.34661 11.7114 6.17187 11.3431L4.99703 8.87306C3.82062 6.39673 6.40303 3.81431 8.87936 4.99073L11.3494 6.16556C11.7173 6.34018 12.1177 6.43573 12.5248 6.44605C12.9319 6.45637 13.3366 6.38122 13.7129 6.22546C14.0891 6.06971 14.4286 5.83679 14.7093 5.54176C14.99 5.24672 15.2057 4.89612 15.3425 4.51256L16.2577 1.93648C17.1729 -0.644354 20.824 -0.644354 21.7424 1.93648H21.7439Z" fill="#FFC501"/>
</svg>
