<svg width="282" height="191" viewBox="0 0 282 191" fill="none" xmlns="http://www.w3.org/2000/svg">
<path d="M115.383 90.5056V57.2871H165.241V90.5056M115.383 90.5056H165.241M115.383 90.5056H107.957L115.383 96.042M165.241 90.5056H172.667L165.241 96.042M115.383 96.042H165.241M115.383 96.042V120.956M165.241 96.042V120.956M115.383 120.956H84.6191L93.1057 129.261M115.383 120.956H134.478M93.1057 129.261H186.458M93.1057 129.261V160.634V189.238H186.458V160.634V129.261M186.458 129.261L196.005 120.956H165.241M165.241 120.956H147.208M134.478 120.956V104.347M134.478 120.956H147.208M134.478 104.347H147.208M134.478 104.347L131.295 102.501M147.208 104.347V120.956M147.208 104.347L150.39 102.501" stroke="white" stroke-width="1.5446"/>
<path d="M116.442 58.2102L106.895 52.6738H112.199M164.179 58.2102L173.726 52.6738H166.3M166.3 52.6738V46.2146L162.057 44.3692L149.327 26.8372H130.233L116.442 44.3692L112.199 46.2146V52.6738M166.3 52.6738H112.199" stroke="white" stroke-width="1.5446"/>
<path d="M130.234 26.8366L134.478 21.3002H135.538M149.329 26.8366L145.086 21.3002H144.025M139.782 21.3002V12.0728M139.782 21.3002H135.538M139.782 21.3002H144.025M139.782 1H140.843L142.964 10.2274M139.782 1V12.0728M139.782 1H138.721L136.599 10.2274M142.964 10.2274L139.782 12.0728M142.964 10.2274L144.025 13.9183L147.208 16.6865L144.025 19.4547V21.3002M139.782 12.0728L136.599 10.2274M136.599 10.2274L135.538 13.9183L132.356 16.6865L135.538 19.4547V21.3002" stroke="white" stroke-width="0.772301"/>
<path d="M117.502 188.3V135.72H163.117V189.239" stroke="white" stroke-width="0.772301"/>
<path d="M150.678 69.2833C150.678 73.8553 146.379 77.7383 140.843 77.7383C135.306 77.7383 131.007 73.8553 131.007 69.2833C131.007 64.7113 135.306 60.8282 140.843 60.8282C146.379 60.8282 150.678 64.7113 150.678 69.2833Z" stroke="white" stroke-width="1.5446"/>
<ellipse cx="140.841" cy="69.2825" rx="4.24328" ry="5.53642" fill="white"/>
<path d="M55.6464 126.493C55.6464 130.111 52.5677 133.103 48.6957 133.103C44.8236 133.103 41.745 130.111 41.745 126.493C41.745 122.875 44.8236 119.884 48.6957 119.884C52.5677 119.884 55.6464 122.875 55.6464 126.493Z" stroke="white" stroke-width="1.5446"/>
<ellipse cx="48.6947" cy="126.492" rx="3.0892" ry="3.69095" fill="white"/>
<path d="M68.6688 112.889V189.238H27.5163V112.889M68.6688 112.889L75.0703 106.192H66.8398H31.1743H22.0293L27.5163 112.889M68.6688 112.889H27.5163" stroke="white" stroke-width="1.5446"/>
<path d="M41.8316 71.1279C41.1149 71.1279 33.1722 94.5039 28.3945 106.192H68.7057L54.915 71.1279H41.8316Z" stroke="white" stroke-width="1.5446"/>
<path d="M41.123 189.239V148.639H55.9745V189.239" stroke="white" stroke-width="1.5446"/>
<path d="M51.0135 71.1285H45.6074L46.8601 67.7076C47.3549 66.3563 49.2661 66.3563 49.7609 67.7076L51.0135 71.1285Z" stroke="white" stroke-width="1.5446"/>
<path d="M0.8125 189.239H281.93" stroke="white" stroke-width="3.0892"/>
<rect x="44.6398" y="82.7804" width="6.56455" height="17.2963" stroke="white" stroke-width="1.15845"/>
<path d="M239.863 126.493C239.863 130.111 236.784 133.103 232.912 133.103C229.04 133.103 225.962 130.111 225.962 126.493C225.962 122.875 229.04 119.884 232.912 119.884C236.784 119.884 239.863 122.875 239.863 126.493Z" stroke="white" stroke-width="1.5446"/>
<ellipse cx="232.913" cy="126.492" rx="3.0892" ry="3.69095" fill="white"/>
<path d="M252.884 112.889V189.238H211.731V112.889M252.884 112.889L259.285 106.192H251.055H215.389H206.244L211.731 112.889M252.884 112.889H211.731" stroke="white" stroke-width="1.5446"/>
<path d="M226.046 71.1279C225.33 71.1279 217.387 94.5039 212.609 106.192H252.921L239.13 71.1279H226.046Z" stroke="white" stroke-width="1.5446"/>
<path d="M225.338 189.239V148.639H240.189V189.239" stroke="white" stroke-width="1.5446"/>
<path d="M235.228 71.1285H229.822L231.075 67.7076C231.57 66.3563 233.481 66.3563 233.976 67.7076L235.228 71.1285Z" stroke="white" stroke-width="1.5446"/>
<rect x="228.859" y="82.7804" width="6.56455" height="17.2963" stroke="white" stroke-width="1.15845"/>
</svg>
