<svg width="27" height="27" viewBox="0 0 27 27" fill="none" xmlns="http://www.w3.org/2000/svg">
<path fill-rule="evenodd" clip-rule="evenodd" d="M25.3265 1.50992C25.6239 1.80733 25.7246 2.24883 25.5857 2.64582L17.9215 24.5435C17.7732 24.9672 17.3813 25.2574 16.9327 25.2757C16.4842 25.294 16.0699 25.0367 15.8876 24.6264L11.6791 15.1573L2.20997 10.9488C1.79974 10.7665 1.54237 10.3522 1.56067 9.90366C1.57897 9.45511 1.86923 9.06318 2.29295 8.91488L24.1906 1.25071C24.5876 1.11176 25.0291 1.21251 25.3265 1.50992ZM13.8145 14.5703L16.767 21.2135L21.9339 6.4509L13.8145 14.5703ZM20.3855 4.9025L5.62295 10.0694L12.2661 13.0219L20.3855 4.9025Z" fill="white"/>
</svg>
